<mxfile modified="2023-01-26T11:22:35.022Z" host="drawio-plugin" agent="5.0 (X11; Linux x86_64) AppleWebKit/537.36 (KHTML, like Gecko) Chrome/98.0.4758.102 Safari/537.36" etag="nbhWf9ua4PfaDpY7tSHl" version="20.5.3" type="embed"><diagram id="PKrw68s-FcHz-RrZCr9i" name="Page-1"><mxGraphModel dx="2140" dy="1594" grid="1" gridSize="10" guides="1" tooltips="1" connect="1" arrows="1" fold="1" page="1" pageScale="1" pageWidth="827" pageHeight="1169" math="0" shadow="0"><root><mxCell id="0"/><mxCell id="1" parent="0"/><mxCell id="32" style="edgeStyle=orthogonalEdgeStyle;rounded=0;orthogonalLoop=1;jettySize=auto;html=1;entryX=0.5;entryY=0;entryDx=0;entryDy=0;endArrow=none;endFill=0;" parent="1" edge="1"><mxGeometry relative="1" as="geometry"><Array as="points"><mxPoint x="640" y="820"/><mxPoint x="640" y="270"/><mxPoint x="360" y="270"/></Array><mxPoint x="360" y="280" as="targetPoint"/></mxGeometry></mxCell><mxCell id="139" style="edgeStyle=orthogonalEdgeStyle;rounded=0;orthogonalLoop=1;jettySize=auto;html=1;entryX=0.5;entryY=0;entryDx=0;entryDy=0;endArrow=none;endFill=0;" parent="1" source="91" target="132" edge="1"><mxGeometry relative="1" as="geometry"/></mxCell><mxCell id="91" value="Цикл 4&amp;nbsp;&lt;br&gt;h = 0; h &amp;lt;= cell.NeighborsAmount; h = h+1" style="strokeWidth=2;html=1;shape=mxgraph.flowchart.loop_limit;whiteSpace=wrap;" parent="1" vertex="1"><mxGeometry x="194" y="539" width="160" height="60" as="geometry"/></mxCell><mxCell id="140" style="edgeStyle=orthogonalEdgeStyle;rounded=0;orthogonalLoop=1;jettySize=auto;html=1;entryX=0.5;entryY=0;entryDx=0;entryDy=0;endArrow=none;endFill=0;" parent="1" source="92" target="133" edge="1"><mxGeometry relative="1" as="geometry"/></mxCell><mxCell id="92" value="Конец цикла 4" style="strokeWidth=2;html=1;shape=mxgraph.flowchart.loop_limit;whiteSpace=wrap;flipV=1;" parent="1" vertex="1"><mxGeometry x="194" y="720" width="160" height="60" as="geometry"/></mxCell><mxCell id="93" value="" style="edgeStyle=orthogonalEdgeStyle;rounded=0;orthogonalLoop=1;jettySize=auto;html=1;endArrow=none;endFill=0;" parent="1" target="100" edge="1"><mxGeometry relative="1" as="geometry"><mxPoint x="434" y="69.99999999999977" as="sourcePoint"/></mxGeometry></mxCell><mxCell id="94" style="edgeStyle=orthogonalEdgeStyle;rounded=0;orthogonalLoop=1;jettySize=auto;html=1;entryX=0.5;entryY=0;entryDx=0;entryDy=0;entryPerimeter=0;endArrow=none;endFill=0;" parent="1" source="98" edge="1"><mxGeometry relative="1" as="geometry"><mxPoint x="594" y="379.9999999999998" as="targetPoint"/><Array as="points"><mxPoint x="594" y="330"/></Array></mxGeometry></mxCell><mxCell id="95" value="Да" style="edgeLabel;html=1;align=center;verticalAlign=middle;resizable=0;points=[];" parent="94" vertex="1" connectable="0"><mxGeometry x="0.1295" relative="1" as="geometry"><mxPoint x="-6" y="-10" as="offset"/></mxGeometry></mxCell><mxCell id="96" style="edgeStyle=orthogonalEdgeStyle;rounded=0;orthogonalLoop=1;jettySize=auto;html=1;entryX=0.5;entryY=0;entryDx=0;entryDy=0;entryPerimeter=0;endArrow=none;endFill=0;" parent="1" source="98" target="104" edge="1"><mxGeometry relative="1" as="geometry"><Array as="points"><mxPoint x="274" y="330"/></Array></mxGeometry></mxCell><mxCell id="97" value="Нет" style="edgeLabel;html=1;align=center;verticalAlign=middle;resizable=0;points=[];" parent="96" vertex="1" connectable="0"><mxGeometry x="0.1311" y="1" relative="1" as="geometry"><mxPoint x="-6" y="-11" as="offset"/></mxGeometry></mxCell><mxCell id="98" value="len(cell) &amp;gt;= MinPt?" style="rhombus;whiteSpace=wrap;html=1;" parent="1" vertex="1"><mxGeometry x="354" y="300" width="160" height="60" as="geometry"/></mxCell><mxCell id="99" value="" style="edgeStyle=orthogonalEdgeStyle;rounded=0;orthogonalLoop=1;jettySize=auto;html=1;endArrow=none;endFill=0;" parent="1" source="100" target="102" edge="1"><mxGeometry relative="1" as="geometry"/></mxCell><mxCell id="100" value="Цикл 2&amp;nbsp;&lt;br&gt;j = chunk * i; j &amp;lt;= (chunk + 1) * i; j = j+1" style="strokeWidth=2;html=1;shape=mxgraph.flowchart.loop_limit;whiteSpace=wrap;" parent="1" vertex="1"><mxGeometry x="359" y="120" width="150" height="60" as="geometry"/></mxCell><mxCell id="101" value="" style="edgeStyle=orthogonalEdgeStyle;rounded=0;orthogonalLoop=1;jettySize=auto;html=1;endArrow=none;endFill=0;" parent="1" source="102" target="98" edge="1"><mxGeometry relative="1" as="geometry"/></mxCell><mxCell id="102" value="cell = G[i]" style="rounded=0;whiteSpace=wrap;html=1;" parent="1" vertex="1"><mxGeometry x="354" y="210" width="160" height="60" as="geometry"/></mxCell><mxCell id="103" value="" style="edgeStyle=orthogonalEdgeStyle;rounded=0;orthogonalLoop=1;jettySize=auto;html=1;entryX=0.5;entryY=0;entryDx=0;entryDy=0;endArrow=none;endFill=0;" parent="1" source="104" target="106" edge="1"><mxGeometry relative="1" as="geometry"/></mxCell><mxCell id="104" value="Цикл 3&amp;nbsp;&lt;br&gt;k = 1; k &amp;lt;= cell.amount; k = k+1" style="strokeWidth=2;html=1;shape=mxgraph.flowchart.loop_limit;whiteSpace=wrap;" parent="1" vertex="1"><mxGeometry x="194" y="360" width="160" height="60" as="geometry"/></mxCell><mxCell id="131" value="" style="edgeStyle=orthogonalEdgeStyle;rounded=0;orthogonalLoop=1;jettySize=auto;html=1;endArrow=none;endFill=0;" parent="1" source="106" target="91" edge="1"><mxGeometry relative="1" as="geometry"/></mxCell><mxCell id="106" value="amount = cell.amount" style="rounded=0;whiteSpace=wrap;html=1;" parent="1" vertex="1"><mxGeometry x="194" y="450" width="160" height="60" as="geometry"/></mxCell><mxCell id="107" style="edgeStyle=orthogonalEdgeStyle;rounded=0;orthogonalLoop=1;jettySize=auto;html=1;entryX=0.5;entryY=1;entryDx=0;entryDy=0;entryPerimeter=0;endArrow=none;endFill=0;" parent="1" source="108" target="109" edge="1"><mxGeometry relative="1" as="geometry"><mxPoint x="364" y="1080" as="targetPoint"/><Array as="points"><mxPoint x="274" y="1050"/><mxPoint x="429" y="1050"/></Array></mxGeometry></mxCell><mxCell id="108" value="Конец цикла 3" style="strokeWidth=2;html=1;shape=mxgraph.flowchart.loop_limit;whiteSpace=wrap;flipV=1;" parent="1" vertex="1"><mxGeometry x="194" y="970" width="160" height="60" as="geometry"/></mxCell><mxCell id="145" style="edgeStyle=orthogonalEdgeStyle;rounded=0;orthogonalLoop=1;jettySize=auto;html=1;entryX=0.5;entryY=0;entryDx=0;entryDy=0;entryPerimeter=0;endArrow=none;endFill=0;" parent="1" source="109" target="144" edge="1"><mxGeometry relative="1" as="geometry"/></mxCell><mxCell id="109" value="Конец цикла 2" style="strokeWidth=2;html=1;shape=mxgraph.flowchart.loop_limit;whiteSpace=wrap;flipV=1;" parent="1" vertex="1"><mxGeometry x="349" y="1070" width="160" height="60" as="geometry"/></mxCell><mxCell id="110" value="" style="edgeStyle=orthogonalEdgeStyle;rounded=0;orthogonalLoop=1;jettySize=auto;html=1;entryX=0.5;entryY=0;entryDx=0;entryDy=0;endArrow=none;endFill=0;" parent="1" source="111" target="113" edge="1"><mxGeometry relative="1" as="geometry"/></mxCell><mxCell id="111" value="Цикл 3&amp;nbsp;&lt;br&gt;k = 1; k &amp;lt;= cell.amount; k = k+1" style="strokeWidth=2;html=1;shape=mxgraph.flowchart.loop_limit;whiteSpace=wrap;" parent="1" vertex="1"><mxGeometry x="514" y="360" width="160" height="60" as="geometry"/></mxCell><mxCell id="112" value="" style="edgeStyle=orthogonalEdgeStyle;rounded=0;orthogonalLoop=1;jettySize=auto;html=1;endArrow=none;endFill=0;" parent="1" source="113" target="115" edge="1"><mxGeometry relative="1" as="geometry"/></mxCell><mxCell id="113" value="coreFlags[cell.FirstPoint + k] = 1" style="rounded=0;whiteSpace=wrap;html=1;" parent="1" vertex="1"><mxGeometry x="514" y="450" width="160" height="60" as="geometry"/></mxCell><mxCell id="114" style="edgeStyle=orthogonalEdgeStyle;rounded=0;orthogonalLoop=1;jettySize=auto;html=1;entryX=0.5;entryY=1;entryDx=0;entryDy=0;entryPerimeter=0;endArrow=none;endFill=0;" parent="1" source="115" target="109" edge="1"><mxGeometry relative="1" as="geometry"><mxPoint x="594" y="880" as="targetPoint"/><Array as="points"><mxPoint x="594" y="1050"/><mxPoint x="429" y="1050"/></Array></mxGeometry></mxCell><mxCell id="115" value="Конец цикла 3" style="strokeWidth=2;html=1;shape=mxgraph.flowchart.loop_limit;whiteSpace=wrap;flipV=1;" parent="1" vertex="1"><mxGeometry x="514" y="539" width="160" height="60" as="geometry"/></mxCell><mxCell id="116" value="A" style="strokeWidth=2;html=1;shape=mxgraph.flowchart.start_2;whiteSpace=wrap;" parent="1" vertex="1"><mxGeometry x="409" y="40" width="50" height="50" as="geometry"/></mxCell><mxCell id="138" style="edgeStyle=orthogonalEdgeStyle;rounded=0;orthogonalLoop=1;jettySize=auto;html=1;entryX=0.5;entryY=1;entryDx=0;entryDy=0;entryPerimeter=0;endArrow=none;endFill=0;" parent="1" source="132" target="92" edge="1"><mxGeometry relative="1" as="geometry"/></mxCell><mxCell id="132" value="amount = amount + dist(P[h+cell.FirstNeighbor], &lt;br&gt;P[k + cell.FirstPoint])" style="rounded=0;whiteSpace=wrap;html=1;" parent="1" vertex="1"><mxGeometry x="194" y="630" width="160" height="60" as="geometry"/></mxCell><mxCell id="135" style="edgeStyle=orthogonalEdgeStyle;rounded=0;orthogonalLoop=1;jettySize=auto;html=1;entryX=0.5;entryY=0;entryDx=0;entryDy=0;endArrow=none;endFill=0;" parent="1" source="133" target="134" edge="1"><mxGeometry relative="1" as="geometry"><Array as="points"><mxPoint x="394" y="840"/></Array></mxGeometry></mxCell><mxCell id="143" value="Да" style="edgeLabel;html=1;align=center;verticalAlign=middle;resizable=0;points=[];" parent="135" vertex="1" connectable="0"><mxGeometry x="0.0619" y="2" relative="1" as="geometry"><mxPoint x="3" y="-8" as="offset"/></mxGeometry></mxCell><mxCell id="141" style="edgeStyle=orthogonalEdgeStyle;rounded=0;orthogonalLoop=1;jettySize=auto;html=1;entryX=0.5;entryY=1;entryDx=0;entryDy=0;entryPerimeter=0;endArrow=none;endFill=0;" parent="1" source="133" target="108" edge="1"><mxGeometry relative="1" as="geometry"><Array as="points"><mxPoint x="154" y="840"/><mxPoint x="154" y="950"/><mxPoint x="274" y="950"/></Array></mxGeometry></mxCell><mxCell id="142" value="Нет" style="edgeLabel;html=1;align=center;verticalAlign=middle;resizable=0;points=[];" parent="141" vertex="1" connectable="0"><mxGeometry x="-0.6955" y="2" relative="1" as="geometry"><mxPoint y="-14" as="offset"/></mxGeometry></mxCell><mxCell id="133" value="amount &amp;gt;= MinPt?" style="rhombus;whiteSpace=wrap;html=1;" parent="1" vertex="1"><mxGeometry x="194" y="810" width="160" height="60" as="geometry"/></mxCell><mxCell id="136" style="edgeStyle=orthogonalEdgeStyle;rounded=0;orthogonalLoop=1;jettySize=auto;html=1;entryX=0.5;entryY=1;entryDx=0;entryDy=0;entryPerimeter=0;endArrow=none;endFill=0;" parent="1" source="134" target="108" edge="1"><mxGeometry relative="1" as="geometry"/></mxCell><mxCell id="134" value="coreFlags[cell.FirstPoint + k] = 1" style="rounded=0;whiteSpace=wrap;html=1;" parent="1" vertex="1"><mxGeometry x="314" y="870" width="160" height="60" as="geometry"/></mxCell><mxCell id="144" value="A" style="strokeWidth=2;html=1;shape=mxgraph.flowchart.start_2;whiteSpace=wrap;" parent="1" vertex="1"><mxGeometry x="404" y="1160" width="50" height="50" as="geometry"/></mxCell></root></mxGraphModel></diagram></mxfile>